<?xml version="1.0" standalone="no"?><svg xmlns="http://www.w3.org/2000/svg" viewBox="0 0 1440 320"><path fill="#0b0c10" fill-opacity="1" d="M0,32L26.7,64C53.3,96,107,160,160,154.7C213.3,149,267,75,320,64C373.3,53,427,107,480,154.7C533.3,203,587,245,640,250.7C693.3,256,747,224,800,208C853.3,192,907,192,960,165.3C1013.3,139,1067,85,1120,90.7C1173.3,96,1227,160,1280,197.3C1333.3,235,1387,245,1413,250.7L1440,256L1440,320L1413.3,320C1386.7,320,1333,320,1280,320C1226.7,320,1173,320,1120,320C1066.7,320,1013,320,960,320C906.7,320,853,320,800,320C746.7,320,693,320,640,320C586.7,320,533,320,480,320C426.7,320,373,320,320,320C266.7,320,213,320,160,320C106.7,320,53,320,27,320L0,320Z"></path></svg>