<svg id="visual" viewBox="0 0 900 600" width="900" height="600" xmlns="http://www.w3.org/2000/svg" xmlns:xlink="http://www.w3.org/1999/xlink" version="1.1"><path d="M0 522L21.5 514.2C43 506.3 86 490.7 128.8 485.8C171.7 481 214.3 487 257.2 488.2C300 489.3 343 485.7 385.8 471C428.7 456.3 471.3 430.7 514.2 434.7C557 438.7 600 472.3 642.8 468.8C685.7 465.3 728.3 424.7 771.2 402.7C814 380.7 857 377.3 878.5 375.7L900 374L900 601L878.5 601C857 601 814 601 771.2 601C728.3 601 685.7 601 642.8 601C600 601 557 601 514.2 601C471.3 601 428.7 601 385.8 601C343 601 300 601 257.2 601C214.3 601 171.7 601 128.8 601C86 601 43 601 21.5 601L0 601Z" fill="#ffffff" stroke-linecap="round" stroke-linejoin="miter"></path></svg>